<?xml version="1.0" encoding="iso-8859-1"?>
<!-- Generator: Adobe Illustrator 19.1.0, SVG Export Plug-In . SVG Version: 6.00 Build 0)  -->
<svg version="1.1" id="Capa_1" xmlns="http://www.w3.org/2000/svg" xmlns:xlink="http://www.w3.org/1999/xlink" x="0px" y="0px"
	 viewBox="0 0 474 474" style="enable-background:new 0 0 474 474;" xml:space="preserve">
<g>
	<g>
		<path d="M245.547,99.8c-4.7-4.7-12.3-4.7-17,0l-100.9,100.8c-4.7,4.7-4.7,12.3,0,17s12.3,4.7,17,0l80.4-80.4V462
			c0,6.6,5.4,12,12,12s12-5.4,12-12V137.2l80.4,80.4c2.3,2.3,5.4,3.5,8.5,3.5s6.1-1.2,8.5-3.5c4.7-4.7,4.7-12.3,0-17L245.547,99.8z"
			/>
		<path d="M45.547,0c-3.2,0-6.3,1.3-8.5,3.5s-3.5,5.3-3.5,8.5s1.3,6.3,3.5,8.5s5.3,3.5,8.5,3.5c3.2,0,6.3-1.3,8.5-3.5
			s3.5-5.3,3.5-8.5s-1.3-6.3-3.5-8.5S48.747,0,45.547,0z"/>
		<path d="M93.447,0c-6.6,0-12,5.4-12,12s5.4,12,12,12s12-5.4,12-12S100.047,0,93.447,0z"/>
		<circle cx="380.647" cy="12" r="12"/>
		<circle cx="332.747" cy="12" r="12"/>
		<circle cx="141.347" cy="12" r="12"/>
		<path d="M284.947,24c6.6,0,12-5.4,12-12s-5.4-12-12-12s-12,5.4-12,12S278.247,24,284.947,24z"/>
		<circle cx="237.047" cy="12" r="12"/>
		<path d="M189.147,24c6.6,0,12-5.4,12-12s-5.4-12-12-12s-12,5.4-12,12S182.547,24,189.147,24z"/>
		<path d="M436.947,3.5c-2.2-2.2-5.3-3.5-8.5-3.5s-6.3,1.3-8.5,3.5s-3.5,5.3-3.5,8.5s1.3,6.3,3.5,8.5s5.3,3.5,8.5,3.5
			s6.3-1.3,8.5-3.5s3.5-5.3,3.5-8.5C440.547,8.8,439.247,5.8,436.947,3.5z"/>
	</g>
</g>
<g>
</g>
<g>
</g>
<g>
</g>
<g>
</g>
<g>
</g>
<g>
</g>
<g>
</g>
<g>
</g>
<g>
</g>
<g>
</g>
<g>
</g>
<g>
</g>
<g>
</g>
<g>
</g>
<g>
</g>
</svg>
